<svg width="900" height="1400" viewBox="0 0 900 1400" fill="none" xmlns="http://www.w3.org/2000/svg">
  <defs>
    <linearGradient id="bg" x1="120" y1="40" x2="760" y2="1340" gradientUnits="userSpaceOnUse">
      <stop stop-color="#EFF6FF"/>
      <stop offset="1" stop-color="#E2E8F0"/>
    </linearGradient>
    <linearGradient id="panel" x1="160" y1="160" x2="740" y2="1240" gradientUnits="userSpaceOnUse">
      <stop stop-color="#FFFFFF"/>
      <stop offset="1" stop-color="#F8FAFC"/>
    </linearGradient>
    <linearGradient id="rooms" x1="170" y1="660" x2="730" y2="1030" gradientUnits="userSpaceOnUse">
      <stop stop-color="#F8FBFF"/>
      <stop offset="1" stop-color="#F1F5F9"/>
    </linearGradient>
    <filter id="shadow" x="110" y="110" width="680" height="1180" filterUnits="userSpaceOnUse" color-interpolation-filters="sRGB">
      <feFlood flood-opacity="0" result="BackgroundImageFix"/>
      <feColorMatrix in="SourceAlpha" type="matrix" values="0 0 0 0 0 0 0 0 0 0 0 0 0 0 0 0 0 0 127 0" result="hardAlpha"/>
      <feOffset dy="18"/>
      <feGaussianBlur stdDeviation="20"/>
      <feColorMatrix type="matrix" values="0 0 0 0 0.0588 0 0 0 0 0.0902 0 0 0 0 0.1647 0 0 0 0.14 0"/>
      <feBlend mode="normal" in2="BackgroundImageFix" result="effect1_dropShadow_1_1"/>
      <feBlend mode="normal" in="SourceGraphic" in2="effect1_dropShadow_1_1" result="shape"/>
    </filter>
  </defs>

  <rect width="900" height="1400" fill="url(#bg)"/>

  <g filter="url(#shadow)">
    <rect x="150" y="130" width="600" height="1120" rx="34" fill="url(#panel)"/>
  </g>

  <rect x="410" y="154" width="80" height="8" rx="4" fill="#CBD5E1"/>
  <text x="190" y="220" fill="#0F172A" font-family="Arial, sans-serif" font-size="32" font-weight="700">Detalhes do trabalho</text>
  <text x="190" y="255" fill="#64748B" font-family="Arial, sans-serif" font-size="18">Prévia visual do modal com a nova seção de cômodos</text>
  <circle cx="704" cy="220" r="18" fill="#F1F5F9"/>
  <text x="697" y="227" fill="#0F172A" font-family="Arial, sans-serif" font-size="20" font-weight="700">×</text>

  <rect x="185" y="290" width="530" height="120" rx="24" fill="#F8FAFC" stroke="#E2E8F0"/>
  <circle cx="245" cy="350" r="30" fill="#DBEAFE"/>
  <text x="232" y="358" fill="#1D4ED8" font-family="Arial, sans-serif" font-size="28" font-weight="700">M</text>
  <text x="295" y="332" fill="#64748B" font-family="Arial, sans-serif" font-size="16" font-weight="700">LIMPEZA PADRÃO</text>
  <text x="295" y="366" fill="#0F172A" font-family="Arial, sans-serif" font-size="28" font-weight="700">Maria Oliveira</text>
  <rect x="295" y="378" width="150" height="22" rx="11" fill="#ECFDF5"/>
  <text x="314" y="393" fill="#047857" font-family="Arial, sans-serif" font-size="12" font-weight="700">Diarista online agora</text>
  <text x="590" y="360" fill="#0F172A" font-family="Arial, sans-serif" font-size="30" font-weight="700">R$ 180,00</text>

  <text x="195" y="470" fill="#0F172A" font-family="Arial, sans-serif" font-size="22" font-weight="700">Localização do trabalho</text>
  <text x="195" y="505" fill="#0F172A" font-family="Arial, sans-serif" font-size="20">Rua das Flores, 120 - Centro - São Paulo/SP</text>
  <text x="195" y="536" fill="#64748B" font-family="Arial, sans-serif" font-size="17" font-style="italic">Cômodos: 3 quartos • 2 banheiros</text>

  <rect x="185" y="575" width="530" height="430" rx="24" fill="url(#rooms)" stroke="#DCE7F5"/>
  <text x="210" y="620" fill="#475569" font-family="Arial, sans-serif" font-size="14" font-weight="700" letter-spacing="1.4">DETALHES DA RESIDÊNCIA</text>
  <text x="575" y="620" fill="#64748B" font-family="Arial, sans-serif" font-size="15">5 tipos de cômodo</text>

  <rect x="210" y="648" width="150" height="88" rx="18" fill="white" stroke="#BFDBFE"/>
  <text x="270" y="688" text-anchor="middle" fill="#0F172A" font-family="Arial, sans-serif" font-size="28" font-weight="700">9</text>
  <text x="285" y="712" text-anchor="middle" fill="#64748B" font-family="Arial, sans-serif" font-size="15">Ambientes</text>

  <rect x="375" y="648" width="150" height="88" rx="18" fill="white" stroke="#BFDBFE"/>
  <text x="450" y="688" text-anchor="middle" fill="#0F172A" font-family="Arial, sans-serif" font-size="28" font-weight="700">3</text>
  <text x="450" y="712" text-anchor="middle" fill="#64748B" font-family="Arial, sans-serif" font-size="15">Quartos</text>

  <rect x="540" y="648" width="150" height="88" rx="18" fill="white" stroke="#BFDBFE"/>
  <text x="615" y="688" text-anchor="middle" fill="#0F172A" font-family="Arial, sans-serif" font-size="28" font-weight="700">2</text>
  <text x="615" y="712" text-anchor="middle" fill="#64748B" font-family="Arial, sans-serif" font-size="15">Banheiros</text>

  <rect x="210" y="760" width="230" height="94" rx="18" fill="white" stroke="#DBEAFE"/>
  <rect x="226" y="778" width="46" height="46" rx="14" fill="#DBEAFE"/>
  <text x="237" y="809" fill="#1D4ED8" font-family="Arial, sans-serif" font-size="22">🛏️</text>
  <text x="286" y="798" fill="#0F172A" font-family="Arial, sans-serif" font-size="18" font-weight="700">Quarto</text>
  <text x="286" y="823" fill="#64748B" font-family="Arial, sans-serif" font-size="14">3 ambientes</text>
  <rect x="376" y="789" width="48" height="34" rx="17" fill="#EFF6FF"/>
  <text x="392" y="811" fill="#1D4ED8" font-family="Arial, sans-serif" font-size="14" font-weight="700">3x</text>

  <rect x="460" y="760" width="230" height="94" rx="18" fill="white" stroke="#DBEAFE"/>
  <rect x="476" y="778" width="46" height="46" rx="14" fill="#DBEAFE"/>
  <text x="487" y="809" fill="#1D4ED8" font-family="Arial, sans-serif" font-size="22">🚿</text>
  <text x="536" y="798" fill="#0F172A" font-family="Arial, sans-serif" font-size="18" font-weight="700">Banheiro</text>
  <text x="536" y="823" fill="#64748B" font-family="Arial, sans-serif" font-size="14">2 ambientes</text>
  <rect x="626" y="789" width="48" height="34" rx="17" fill="#EFF6FF"/>
  <text x="642" y="811" fill="#1D4ED8" font-family="Arial, sans-serif" font-size="14" font-weight="700">2x</text>

  <rect x="210" y="870" width="230" height="94" rx="18" fill="white" stroke="#DBEAFE"/>
  <rect x="226" y="888" width="46" height="46" rx="14" fill="#DBEAFE"/>
  <text x="237" y="919" fill="#1D4ED8" font-family="Arial, sans-serif" font-size="22">🍳</text>
  <text x="286" y="908" fill="#0F172A" font-family="Arial, sans-serif" font-size="18" font-weight="700">Cozinha</text>
  <text x="286" y="933" fill="#64748B" font-family="Arial, sans-serif" font-size="14">1 ambiente</text>
  <rect x="376" y="899" width="48" height="34" rx="17" fill="#EFF6FF"/>
  <text x="392" y="921" fill="#1D4ED8" font-family="Arial, sans-serif" font-size="14" font-weight="700">1x</text>

  <rect x="460" y="870" width="230" height="94" rx="18" fill="white" stroke="#DBEAFE"/>
  <rect x="476" y="888" width="46" height="46" rx="14" fill="#DBEAFE"/>
  <text x="487" y="919" fill="#1D4ED8" font-family="Arial, sans-serif" font-size="22">🛋️</text>
  <text x="536" y="908" fill="#0F172A" font-family="Arial, sans-serif" font-size="18" font-weight="700">Sala</text>
  <text x="536" y="933" fill="#64748B" font-family="Arial, sans-serif" font-size="14">2 ambientes</text>
  <rect x="626" y="899" width="48" height="34" rx="17" fill="#EFF6FF"/>
  <text x="642" y="921" fill="#1D4ED8" font-family="Arial, sans-serif" font-size="14" font-weight="700">2x</text>

  <rect x="210" y="980" width="230" height="94" rx="18" fill="white" stroke="#DBEAFE"/>
  <rect x="226" y="998" width="46" height="46" rx="14" fill="#DBEAFE"/>
  <text x="237" y="1029" fill="#1D4ED8" font-family="Arial, sans-serif" font-size="22">🧺</text>
  <text x="286" y="1018" fill="#0F172A" font-family="Arial, sans-serif" font-size="18" font-weight="700">Lavanderia</text>
  <text x="286" y="1043" fill="#64748B" font-family="Arial, sans-serif" font-size="14">1 ambiente</text>
  <rect x="376" y="1009" width="48" height="34" rx="17" fill="#EFF6FF"/>
  <text x="392" y="1031" fill="#1D4ED8" font-family="Arial, sans-serif" font-size="14" font-weight="700">1x</text>

  <rect x="460" y="1098" width="230" height="48" rx="24" fill="#E6F3FF"/>
  <text x="515" y="1128" fill="#1D4ED8" font-family="Arial, sans-serif" font-size="16" font-weight="700">Ver no Google Maps</text>

  <rect x="185" y="1175" width="530" height="44" rx="22" fill="#111827"/>
  <text x="450" y="1203" text-anchor="middle" fill="white" font-family="Arial, sans-serif" font-size="18" font-weight="700">Fechar detalhes</text>
</svg>
